name Walk4_EMG.mot
datacolumns 17
datarows 25
range 1.65000000 1.67400000
endheader
                time	            vasmed_r	            vaslat_r	            recfem_r	               gra_r	               sar_r	            tibant_r	           perlong_r	            addmag_r	           semimem_r	          bicfemlh_r	            gasmed_r	            gaslat_r	               sol_r	               tfl_r	              gmed_r	              gmax_r	
          1.65000000	          0.03138733	          0.00000000	          0.00000000	          0.00000000	          0.03440467	          0.01760546	          0.00000000	          0.00000000	          0.00000000	          0.00000000	          0.00000000	          0.00000000	          0.00462902	          0.00000000	          0.00000000	          0.00000000	
          1.65100000	          0.03140139	          0.00000000	          0.00000000	          0.00000000	          0.03440692	          0.01760553	          0.00000000	          0.00000000	          0.00000000	          0.00000000	          0.00000000	          0.00000000	          0.00463085	          0.00000000	          0.00000000	          0.00000000	
          1.65200000	          0.03145539	          0.00000000	          0.00000000	          0.00000000	          0.03441905	          0.01760592	          0.00000000	          0.00000000	          0.00000000	          0.00000000	          0.00000000	          0.00000000	          0.00464011	          0.00000000	          0.00000000	          0.00000000	
          1.65300000	          0.03159708	          0.00000000	          0.00000000	          0.00000000	          0.03445884	          0.01760719	          0.00000000	          0.00000000	          0.00000000	          0.00000000	          0.00000000	          0.00000000	          0.00467090	          0.00000000	          0.00000000	          0.00000000	
          1.65400000	          0.03189003	          0.00000000	          0.00000000	          0.00000000	          0.03455254	          0.01761048	          0.00000000	          0.00000000	          0.00000000	          0.00000000	          0.00000000	          0.00000000	          0.00474891	          0.00000000	          0.00000000	          0.00000000	
          1.65500000	          0.03240987	          0.00000000	          0.00000000	          0.00000000	          0.03472970	          0.01761765	          0.00000000	          0.00000000	          0.00000000	          0.00000000	          0.00000000	          0.00000000	          0.00491337	          0.00000000	          0.00000000	          0.00000000	
          1.65600000	          0.03324827	          0.00000000	          0.00000000	          0.00000000	          0.03502139	          0.01763136	          0.00000000	          0.00000000	          0.00000000	          0.00000000	          0.00000000	          0.00000000	          0.00521602	          0.00000000	          0.00000000	          0.00000000	
          1.65700000	          0.03451956	          0.00000000	          0.00000000	          0.00000000	          0.03546307	          0.01765502	          0.00000000	          0.00000000	          0.00000000	          0.00000000	          0.00000000	          0.00000000	          0.00571861	          0.00000000	          0.00000000	          0.00000000	
          1.65800000	          0.03635703	          0.00000000	          0.00000000	          0.00000000	          0.03609685	          0.01769311	          0.00000000	          0.00000000	          0.00000000	          0.00000000	          0.00000000	          0.00000000	          0.00649143	          0.00000000	          0.00000000	          0.00000000	
          1.65900000	          0.03889716	          0.00000000	          0.00000000	          0.00000000	          0.03696977	          0.01775163	          0.00000000	          0.00000000	          0.00000000	          0.00000000	          0.00000000	          0.00000000	          0.00760928	          0.00000000	          0.00000000	          0.00000000	
          1.66000000	          0.04226303	          0.00000000	          0.00000000	          0.00000000	          0.03813227	          0.01783791	          0.00000000	          0.00000000	          0.00000000	          0.00000000	          0.00000000	          0.00000000	          0.00914706	          0.00000000	          0.00000000	          0.00000000	
          1.66100000	          0.04655626	          0.00000000	          0.00015010	          0.00006757	          0.03963960	          0.01795966	          0.00033495	          0.00042699	          0.00018089	          0.00003812	          0.00092763	          0.00072427	          0.01118095	          0.00018651	          0.00015049	          0.00011247	
          1.66200000	          0.05185794	          0.00123541	          0.00136562	          0.00027110	          0.04155227	          0.01812446	          0.00127988	          0.00109563	          0.00066286	          0.00034813	          0.00416135	          0.00337696	          0.01378861	          0.00073137	          0.00042515	          0.00062676	
          1.66300000	          0.05823370	          0.00283381	          0.00289493	          0.00051968	          0.04393474	          0.01833994	          0.00244564	          0.00187901	          0.00124803	          0.00073836	          0.00809871	          0.00663536	          0.01704197	          0.00139456	          0.00075555	          0.00126394	
          1.66400000	          0.06573853	          0.00482894	          0.00476341	          0.00081736	          0.04685377	          0.01861398	          0.00386644	          0.00278770	          0.00195065	          0.00121773	          0.01277173	          0.01054587	          0.02099910	          0.00218614	          0.00114933	          0.00203639	
          1.66500000	          0.07442011	          0.00725251	          0.00698859	          0.00116786	          0.05037459	          0.01895406	          0.00557265	          0.00383132	          0.00278743	          0.00179376	          0.01820220	          0.01514367	          0.02570238	          0.00311508	          0.00161294	          0.00295651	
          1.66600000	          0.08432111	          0.01012850	          0.00958074	          0.00157466	          0.05455716	          0.01936650	          0.00759002	          0.00501753	          0.00377607	          0.00247236	          0.02440178	          0.02045235	          0.03118068	          0.00418947	          0.00215163	          0.00403491	
          1.66700000	          0.09547971	          0.01347452	          0.01254438	          0.00204083	          0.05945476	          0.01985612	          0.00993932	          0.00635243	          0.00493445	          0.00325784	          0.03137060	          0.02648417	          0.03745160	          0.00541629	          0.00277034	          0.00527909	
          1.66800000	          0.10792827	          0.01730246	          0.01587957	          0.00256873	          0.06511142	          0.02042612	          0.01263652	          0.00784128	          0.00628015	          0.00415299	          0.03909785	          0.03324031	          0.04452371	          0.00680103	          0.00347452	          0.00669326	
          1.66900000	          0.12169098	          0.02161860	          0.01958224	          0.00316006	          0.07155862	          0.02107816	          0.01569460	          0.00948854	          0.00783028	          0.00515907	          0.04756548	          0.04071267	          0.05239785	          0.00834746	          0.00427068	          0.00827912	
          1.67000000	          0.13678135	          0.02642355	          0.02364416	          0.00381635	          0.07881561	          0.02181260	          0.01912786	          0.01129735	          0.00960244	          0.00627596	          0.05675229	          0.04888793	          0.06106646	          0.01005742	          0.00516702	          0.01003698	
          1.67100000	          0.15320033	          0.03171302	          0.02805335	          0.00453963	          0.08689215	          0.02262870	          0.02295602	          0.01326940	          0.01161603	          0.00750223	          0.06663514	          0.05775021	          0.07051374	          0.01193087	          0.00617401	          0.01196687	
          1.67200000	          0.17093538	          0.03747939	          0.03279433	          0.00533241	          0.09578863	          0.02352492	          0.02720426	          0.01540527	          0.01389125	          0.00883510	          0.07718753	          0.06728003	          0.08071753	          0.01396586	          0.00730432	          0.01406930	
          1.67300000	          0.18996027	          0.04371221	          0.03784826	          0.00619691	          0.10549391	          0.02449903	          0.03189830	          0.01770450	          0.01644690	          0.01027063	          0.08837843	          0.07745237	          0.09164964	          0.01615836	          0.00857213	          0.01634574	
          1.67400000	          0.21023647	          0.05039679	          0.04319334	          0.00713503	          0.11598467	          0.02554806	          0.03706154	          0.02016571	          0.01930049	          0.01180407	          0.10017274	          0.08823695	          0.10327502	          0.01850229	          0.00999187	          0.01879829	
